PathFileType	4	(X/Y/Z)	C:/Users/opensim2020/Desktop/walking_exp_matlab/subject01_walking05_straight_02.trc																																																																																																																															
DataRate	CameraRate	NumFrames	NumMarkers	Units	OrigDataRate	OrigDataStartFrame	OrigNumFrames																																																																																																																											
100	100	6	43	mm	100	1655	205																																																																																																																											
Frame#	Time	LFHD			RFHD			LBHD			RBHD			C7			T10			CLAV			STRN			RBAK			LSHO			LUPA			LELB			LFRM			LWRA			LWRB			LFIN			RSHO			RUPA			RELB			RFRM			RWRA			RWRB			RFIN			LASI			RASI			LPSI			RPSI			LTHI			LKNE			LTIB			LANK			LHEE			LTOE			RTHI			RKNE			RTIB			RANK			RHEE			RTOE			*39			*40			*41			*42		
		X1	Y1	Z1	X2	Y2	Z2	X3	Y3	Z3	X4	Y4	Z4	X5	Y5	Z5	X6	Y6	Z6	X7	Y7	Z7	X8	Y8	Z8	X9	Y9	Z9	X10	Y10	Z10	X11	Y11	Z11	X12	Y12	Z12	X13	Y13	Z13	X14	Y14	Z14	X15	Y15	Z15	X16	Y16	Z16	X17	Y17	Z17	X18	Y18	Z18	X19	Y19	Z19	X20	Y20	Z20	X21	Y21	Z21	X22	Y22	Z22	X23	Y23	Z23	X24	Y24	Z24	X25	Y25	Z25	X26	Y26	Z26	X27	Y27	Z27	X28	Y28	Z28	X29	Y29	Z29	X30	Y30	Z30	X31	Y31	Z31	X32	Y32	Z32	X33	Y33	Z33	X34	Y34	Z34	X35	Y35	Z35	X36	Y36	Z36	X37	Y37	Z37	X38	Y38	Z38	X39	Y39	Z39	X40	Y40	Z40	X41	Y41	Z41	X42	Y42	Z42	X43	Y43	Z43
																																																																																																																																		
180	1.79	685.80579	1660.2218	-1472.07349	694.4859	1660.87366	-1357.14941	565.64648	1625.80103	-1471.64148	570.96088	1625.67664	-1350.19629	507.30963	1427.10767	-1435.53992	481.63251	1130.5813	-1427.05334	652.60754	1358.98743	-1433.51746	698.31921	1207.97607	-1442.07581	457.66782	1227.22156	-1361.0741	589.74988	1391.32349	-1594.90771	562.35748	1211.30493	-1683.74573	556.08612	1058.43042	-1693.19128	612.17566	960.34149	-1727.93542	714.85199	864.33514	-1718.21228	660.76007	848.93866	-1742.26538	723.62433	792.33832	-1754.96643	585.62347	1384.46313	-1281.77856	517.16895	1184.81323	-1188.25269	509.32404	1060.42859	-1188.44312	529.04431	941.49847	-1156.93628	606.64075	821.78986	-1168.67566	559.57709	824.57074	-1134.58679	592.74243	744.77612	-1134.62305	656.69153	927.25281	-1541.90393	670.16724	931.60449	-1324.98083	473.72241	934.15027	-1478.87866	482.80774	940.94617	-1333.98181	650.51361	596.17883	-1614.18311	646.95947	463.04611	-1610.47681	499.93527	351.25012	-1614.77966	336.63516	209.16714	-1559.32483	298.23709	221.88643	-1497.65881	380.1069	66.61227	-1564.35034	646.25549	596.21771	-1283.81738	672.53412	441.32849	-1320.15002	626.03302	269.7655	-1322.03113	601.93933	70.28198	-1385.12122	551.82025	35.55961	-1436.05371	741.89569	31.55023	-1389.21423	685.56964	1695.55737	-1379.35779	-1973.02344	1023.29663	3101.78735	-2012.45618	1021.91235	3140.74048	NaN	NaN	NaN
181	1.8	695.45508	1660.48596	-1471.39392	703.96832	1661.21912	-1356.39563	575.28461	1626.04846	-1471.05505	580.41119	1625.98816	-1349.62317	516.87463	1427.47327	-1434.76575	490.75232	1131.0708	-1426.08777	661.98242	1359.15405	-1432.89099	707.41248	1208.09045	-1441.28052	466.87009	1227.82813	-1360.08899	599.1413	1391.55676	-1594.24622	570.85541	1211.02808	-1682.18176	563.39478	1058.49854	-1690.72913	616.56488	959.23346	-1725.62878	716.23663	859.98828	-1716.3186	661.58398	846.15497	-1740.08545	722.59851	787.35602	-1752.56323	595.27911	1384.85376	-1281.16711	528.27271	1185.27478	-1186.75989	520.77557	1060.66443	-1186.67419	542.44568	941.96002	-1155.06995	621.51917	823.50574	-1166.77112	574.59344	825.63947	-1132.59204	609.14868	746.32996	-1132.55432	666.04932	927.59033	-1540.85205	678.98737	931.88342	-1323.4895	483.06161	934.50592	-1478.65027	490.6781	940.81152	-1333.7627	666.24017	598.26129	-1614.48279	665.67401	465.21072	-1611.08521	519.66254	352.70905	-1614.7804	358.04379	208.04295	-1559.71216	318.8302	218.78511	-1497.6814	404.8783	67.15155	-1568.55579	652.26349	596.29205	-1283.33496	676.66437	440.87973	-1319.89417	629.04224	269.4715	-1321.8512	602.11829	70.38918	-1385.11108	551.86414	35.83884	-1436.11414	741.9837	31.43766	-1389.29968	695.21875	1695.94714	-1378.63733	-1973.05469	1023.25397	3101.86475	-2012.50854	1021.99164	3140.58643	NaN	NaN	NaN
182	1.81	705.04236	1660.64514	-1470.80042	713.49164	1661.4248	-1355.83752	584.89264	1626.27954	-1470.52441	590.00977	1626.28564	-1349.02905	526.33307	1427.87695	-1434.03833	499.76898	1131.51172	-1425.2572	671.38708	1359.40393	-1432.2373	716.63379	1208.19934	-1440.51343	476.04703	1228.43579	-1359.1322	608.38428	1391.7915	-1593.61096	579.31012	1210.82312	-1680.70496	570.65509	1058.60291	-1688.28845	620.94202	958.24945	-1723.30652	717.4679	855.92346	-1714.45947	662.27295	843.59052	-1737.85352	721.29712	782.60547	-1750.15625	604.5329	1385.15857	-1280.6051	539.29199	1185.54407	-1185.36938	532.0412	1060.90161	-1185.02319	555.77289	942.4707	-1153.26318	636.68457	825.14935	-1165.16785	589.89368	826.54791	-1130.78467	625.41302	747.96759	-1130.56213	676.19696	928.44092	-1539.92786	687.7984	932.19806	-1321.98499	492.33054	934.96313	-1478.52734	500.06082	940.95538	-1333.49744	681.7854	600.27826	-1614.66638	683.97034	467.3418	-1611.68701	539.07971	353.91629	-1614.73901	379.5665	206.13782	-1560.10107	339.76813	214.53354	-1497.82837	431.85565	68.33329	-1572.37231	658.13025	596.09137	-1282.85913	680.67352	440.12482	-1319.53613	631.38165	269.33963	-1321.63489	602.25134	70.4044	-1385.05786	551.75922	35.97238	-1435.77649	742.09332	31.40269	-1389.3573	704.80908	1696.24048	-1378.1228	-1973.12268	1023.45526	3102.00195	-2012.5293	1021.99548	3140.79272	NaN	NaN	NaN
183	1.82	714.67035	1660.672	-1470.27539	723.06177	1661.64026	-1355.37012	594.47089	1626.47107	-1470.04248	599.50592	1626.60547	-1348.56262	535.63696	1428.18018	-1433.2677	508.69687	1131.87048	-1424.56592	680.65424	1359.59082	-1431.58936	725.85724	1208.30688	-1439.651	485.0282	1229.01782	-1358.24951	617.53876	1391.97644	-1593.00256	587.8161	1210.64331	-1679.41589	577.79663	1058.82861	-1685.89099	625.31274	957.29584	-1720.96313	718.505	851.92413	-1712.55139	662.86029	841.2702	-1735.58594	719.84314	778.25543	-1747.8075	613.84583	1385.57617	-1279.89783	550.02283	1185.85034	-1184.09009	543.87866	1061.02759	-1183.03589	569.16046	943.02258	-1151.44568	651.74066	826.9743	-1163.50439	605.26263	827.64166	-1128.98022	642.04858	749.84363	-1128.43799	685.62872	929.02667	-1538.62939	696.50244	932.45251	-1320.51111	501.65671	935.49091	-1478.45081	508.64569	941.15234	-1333.35449	696.8183	602.64691	-1614.74451	701.64844	469.47162	-1612.26746	558.12946	354.82825	-1614.6665	401.63901	203.4008	-1560.47485	360.94986	209.10684	-1498.13086	460.08478	68.54523	-1575.8291	664.06958	595.74561	-1282.45593	684.43884	439.50049	-1319.21143	633.56848	269.28952	-1321.26355	602.54425	70.58044	-1385.00757	552.10938	36.32148	-1436.13672	742.22974	31.2989	-1389.36462	714.44073	1696.3634	-1377.63013	-1973.05908	1023.97058	3102.0144	-2012.54077	1022.05231	3140.5918	NaN	NaN	NaN
184	1.83	724.33893	1660.65247	-1469.83765	732.69226	1661.68176	-1354.89539	604.07629	1626.6333	-1469.62939	609.10669	1626.89978	-1348.11511	544.92633	1428.44983	-1432.68457	517.58862	1132.21765	-1423.92944	689.83691	1359.67761	-1430.92053	734.97064	1208.4552	-1438.87366	494.06381	1229.45459	-1357.34143	626.68958	1392.19141	-1592.43213	596.26642	1210.45593	-1678.2793	584.96368	1058.94336	-1683.42883	629.48907	956.38397	-1718.70032	719.49646	848.17059	-1710.64563	663.30505	839.14459	-1733.23938	718.17987	774.25891	-1745.58264	623.00476	1386.10913	-1279.3175	560.60431	1186.16077	-1182.9071	555.10291	1061.16846	-1181.42346	582.39948	943.60571	-1149.7605	666.83624	828.88098	-1161.92346	620.44263	828.9707	-1127.1217	658.45428	751.74878	-1126.39624	695.02441	929.56165	-1537.33679	705.06067	932.5849	-1319.08594	510.90109	935.98059	-1478.38159	517.18787	941.37866	-1333.22229	711.50677	604.75079	-1614.8844	718.79883	471.63022	-1612.67969	576.92303	355.24109	-1614.578	424.63043	199.6321	-1561.00195	383.0101	202.68398	-1498.71484	489.35638	68.70411	-1579.11548	669.9563	595.34296	-1282.08899	688.13208	439.14362	-1318.68726	635.27142	269.35703	-1320.854	602.84454	70.82749	-1384.88074	551.98492	36.45546	-1436.09875	742.38263	31.29301	-1389.37195	724.06232	1696.42822	-1377.25977	-1973.07031	1023.45813	3101.77539	-2012.55542	1022.10559	3140.60181	NaN	NaN	NaN
185	1.84	734.00476	1660.55334	-1469.46423	742.27466	1661.73669	-1354.52246	613.63861	1626.76233	-1469.22119	618.6167	1627.19983	-1347.75879	554.11792	1428.66089	-1432.06726	526.43939	1132.45874	-1423.37146	698.94678	1359.82495	-1430.33179	743.92224	1208.52722	-1438.14343	503.07849	1229.84424	-1356.5564	635.81665	1392.30908	-1591.85205	604.6673	1210.33423	-1677.25781	591.87341	1059.16699	-1681.21313	633.53351	955.50696	-1716.42114	720.32623	844.54535	-1708.70361	663.70178	837.27228	-1730.93079	716.39911	770.55298	-1743.41113	632.17419	1386.1814	-1278.71387	570.9483	1186.43127	-1181.79102	566.1142	1061.27075	-1179.91675	595.59851	944.12067	-1148.13843	681.89716	830.92493	-1160.38623	635.61847	830.28906	-1125.41565	675.0014	753.85822	-1124.48535	704.22357	929.99518	-1536.0166	713.44769	932.61267	-1317.74561	520.07819	936.41644	-1478.31567	525.67188	941.44812	-1333.17188	725.78802	606.8222	-1615.04333	735.29822	473.91132	-1613.00476	595.81549	354.79294	-1614.22095	448.34415	195.07983	-1561.823	405.93915	195.53613	-1499.54968	518.94427	67.78127	-1581.75488	675.84521	595.1051	-1281.70813	691.56543	438.63315	-1318.08813	636.5556	269.30667	-1320.35132	603.01123	71.00101	-1384.85461	552.1051	37.02565	-1436.16675	742.4939	31.16995	-1389.50269	733.81659	1696.40137	-1376.94104	-1973.14551	1023.54309	3101.8833	-2012.49988	1022.04694	3140.63916	NaN	NaN	NaN
